<svg width="107" height="80" viewBox="0 0 107 80" fill="none" xmlns="http://www.w3.org/2000/svg">
<path d="M54.1759 13.1321L51 16.308H56.3483L54.1759 13.1321Z" fill="#50336E"/>
<path d="M54.1759 13.132V78.0643H81.6481C81.6481 78.0643 81.6481 25.4385 81.6481 24.3011L62.4931 4.89764L54.1759 13.132Z" fill="#D9A78B"/>
<path d="M104.447 24.3012H81.648V78.0644H104.447V24.3012Z" fill="#B68B73"/>
<path d="M62.4931 4.89764H84.2638L104.447 24.3011H81.6481L62.4931 4.89764Z" fill="#FE5F5F"/>
<path d="M85.5254 6.11047H63.6888L64.2247 6.65358H86.0904L85.5254 6.11047Z" fill="#E41717"/>
<path d="M89.0982 9.54456H67.0814L67.6172 10.0877H89.6632L89.0982 9.54456Z" fill="#E41717"/>
<path d="M92.671 12.9811H70.4717L71.0075 13.5242H93.2361L92.671 12.9811Z" fill="#E41717"/>
<path d="M96.2438 16.415H73.8618L74.3976 16.9581H96.8088L96.2438 16.415Z" fill="#E41717"/>
<path d="M99.8192 19.849H77.2545L77.7902 20.3921H100.384L99.8192 19.849Z" fill="#E41717"/>
<path d="M103.392 23.2855H80.6447L81.1805 23.8286H103.957L103.392 23.2855Z" fill="#E41717"/>
<path d="M74.0519 0H71.4484V6.08627H74.0519V0Z" fill="#FE5F5F"/>
<path d="M71.4483 6.08627L70.2306 4.9026H69.0056V0H71.4483V6.08627Z" fill="#E41717"/>
<path d="M81.648 75.2879H51.414V79.9981H81.648V75.2879Z" fill="#B68B73"/>
<path d="M81.6479 80H106.268V75.2898H81.6479V80Z" fill="#B68B73"/>
<path d="M64.6971 19.5057H60.6591V14.1331C60.6591 13.0176 61.5626 12.1141 62.6781 12.1141C63.7935 12.1141 64.6971 13.0176 64.6971 14.1331V19.5057Z" fill="white"/>
<path d="M60.6591 37.633H57.0107V27.7864C57.0107 26.7781 57.8266 25.9622 58.8349 25.9622C59.8432 25.9622 60.6591 26.7781 60.6591 27.7864V37.633Z" fill="white"/>
<path d="M66.1414 37.633H62.4931V27.7864C62.4931 26.7781 63.309 25.9622 64.3173 25.9622C65.3256 25.9622 66.1414 26.7781 66.1414 27.7864V37.633Z" fill="white"/>
<path d="M71.5603 37.633H67.912V27.7864C67.912 26.7781 68.7279 25.9622 69.7362 25.9622C70.7444 25.9622 71.5603 26.7781 71.5603 27.7864V37.633Z" fill="white"/>
<path d="M77.0816 37.633H73.4332V27.7864C73.4332 26.7781 74.2491 25.9622 75.2574 25.9622C76.2657 25.9622 77.0816 26.7781 77.0816 27.7864V37.633Z" fill="white"/>
<path d="M60.6591 53.1494H57.0107V43.3028C57.0107 42.2945 57.8266 41.4786 58.8349 41.4786C59.8432 41.4786 60.6591 42.2945 60.6591 43.3028V53.1494Z" fill="white"/>
<path d="M66.1414 53.1494H62.4931V43.3028C62.4931 42.2945 63.309 41.4786 64.3173 41.4786C65.3256 41.4786 66.1414 42.2945 66.1414 43.3028V53.1494Z" fill="white"/>
<path d="M71.5603 53.1494H67.912V43.3028C67.912 42.2945 68.7279 41.4786 69.7362 41.4786C70.7444 41.4786 71.5603 42.2945 71.5603 43.3028V53.1494Z" fill="white"/>
<path d="M77.0816 53.1494H73.4332V43.3028C73.4332 42.2945 74.2491 41.4786 75.2574 41.4786C76.2657 41.4786 77.0816 42.2945 77.0816 43.3028V53.1494Z" fill="white"/>
<path d="M60.6591 67.9036H57.0107V58.0593C57.0107 57.0511 57.8266 56.2352 58.8349 56.2352C59.8432 56.2352 60.6591 57.0511 60.6591 58.0593V67.9036Z" fill="white"/>
<path d="M66.1414 67.9036H62.4931V58.0593C62.4931 57.0511 63.309 56.2352 64.3173 56.2352C65.3256 56.2352 66.1414 57.0511 66.1414 58.0593V67.9036Z" fill="white"/>
<path d="M71.5603 67.9036H67.912V58.0593C67.912 57.0511 68.7279 56.2352 69.7362 56.2352C70.7444 56.2352 71.5603 57.0511 71.5603 58.0593V67.9036Z" fill="white"/>
<path d="M77.0816 67.9036H73.4332V58.0593C73.4332 57.0511 74.2491 56.2352 75.2574 56.2352C76.2657 56.2352 77.0816 57.0511 77.0816 58.0593V67.9036Z" fill="white"/>
<path d="M51 16.3079L62.493 4.89764L63.0215 5.43344L52.0935 16.3079H51Z" fill="#E41717"/>
<path d="M88.504 30.3462H85.7665V37.6331H88.504V30.3462Z" fill="white"/>
<path d="M92.4712 30.3462H89.7338V37.6331H92.4712V30.3462Z" fill="white"/>
<path d="M96.4387 30.3462H93.7012V37.6331H96.4387V30.3462Z" fill="white"/>
<path d="M100.406 30.3462H97.6685V37.6331H100.406V30.3462Z" fill="white"/>
<path d="M88.504 41.481H85.7665V48.768H88.504V41.481Z" fill="white"/>
<path d="M92.4712 41.481H89.7338V48.768H92.4712V41.481Z" fill="white"/>
<path d="M96.4387 41.481H93.7012V48.768H96.4387V41.481Z" fill="white"/>
<path d="M100.406 41.481H97.6685V48.768H100.406V41.481Z" fill="white"/>
<path d="M88.504 52.5917H85.7665V59.8787H88.504V52.5917Z" fill="white"/>
<path d="M92.4712 52.5917H89.7338V59.8787H92.4712V52.5917Z" fill="white"/>
<path d="M96.4387 52.5917H93.7012V59.8787H96.4387V52.5917Z" fill="white"/>
<path d="M100.406 52.5917H97.6685V59.8787H100.406V52.5917Z" fill="white"/>
<path d="M88.504 62.7305H85.7665V70.0175H88.504V62.7305Z" fill="white"/>
<path d="M92.4712 62.7305H89.7338V70.0175H92.4712V62.7305Z" fill="white"/>
<path d="M96.4387 62.7305H93.7012V70.0175H96.4387V62.7305Z" fill="white"/>
<path d="M100.406 62.7305H97.6685V70.0175H100.406V62.7305Z" fill="white"/>
<path d="M14.8827 38.3934H13.3157L15.2573 36.6524L14.8827 38.3934Z" fill="#50336E"/>
<path d="M2.55643 79.1273H44.7955V38.1047L29.157 16.8243L14.2853 37.0777V47.9758L2.55643 59.7047V79.1273Z" fill="#D9A78B"/>
<path d="M44.7955 73.5361H2.55643V74.1906H44.7955V73.5361Z" fill="#B68B73"/>
<path d="M58.3846 38.1047H44.7956V79.1273H58.3846V38.1047Z" fill="#B68B73"/>
<path d="M28.8728 16.4385H42.8827L59.3455 38.1046H44.7957L28.8728 16.4385Z" fill="#3864A7"/>
<path d="M47.7201 38.1052L31.2463 16.4391H30.0121L46.486 38.1052H47.7201Z" fill="#073D8E"/>
<path d="M50.1532 38.1045L33.6816 16.4384H32.4452L48.919 38.1045H50.1532Z" fill="#073D8E"/>
<path d="M52.5861 38.1045L36.1145 16.4384H34.8803L51.3519 38.1045H52.5861Z" fill="#073D8E"/>
<path d="M55.0193 38.1045L38.5476 16.4384H37.3135L53.7851 38.1045H55.0193Z" fill="#073D8E"/>
<path d="M57.4545 38.1045L40.9807 16.4384H39.7465L56.2181 38.1045H57.4545Z" fill="#073D8E"/>
<path d="M59.3454 38.1045L42.8826 16.4384H42.1796L58.6512 38.1045H59.3454Z" fill="#073D8E"/>
<path d="M40.2776 12H37.9217V18.0584H40.2776V12Z" fill="#3864A7"/>
<path d="M37.9218 18.0584L36.8199 16.4386H35.7113V12H37.9218V18.0584Z" fill="#073D8D"/>
<path d="M13.9835 38.3933H12.7648L28.8728 16.4385L29.4612 17.2385L13.9835 38.3933Z" fill="#3864A7"/>
<path d="M14.2854 47.2838L0 61.3026L2.08928 61.3004L2.5565 60.8221V79.1274H14.2854V49.0205V47.2838Z" fill="#B68B73"/>
<path d="M23.6762 44.0067H19.6894V55.0635H23.6762V44.0067Z" fill="white"/>
<path d="M31.2419 44.0067H27.2573V55.0635H31.2419V44.0067Z" fill="white"/>
<path d="M38.81 44.0067H34.8232V55.0635H38.81V44.0067Z" fill="white"/>
<path d="M23.6762 59.9803H19.6894V71.037H23.6762V59.9803Z" fill="white"/>
<path d="M31.2419 59.9803H27.2573V71.037H31.2419V59.9803Z" fill="white"/>
<path d="M38.81 59.9803H34.8232V71.037H38.81V59.9803Z" fill="white"/>
<path d="M32.3293 32.7792C32.7012 31.1936 31.7174 29.6068 30.1318 29.2348C28.5463 28.8628 26.9594 29.8467 26.5874 31.4322C26.2155 33.0178 27.1993 34.6047 28.7849 34.9766C30.3704 35.3486 31.9573 34.3648 32.3293 32.7792Z" fill="white"/>
</svg>
